<?xml version="1.0" encoding="UTF-8" standalone="no"?>
<!-- Created with Inkscape (http://www.inkscape.org/) -->

<svg
   width="3840"
   height="2160"
   viewBox="0 0 3840 2160"
   version="1.1"
   id="svg1"
   inkscape:version="1.4.4 (dcaf3e7d9e, 2026-05-05)"
   sodipodi:docname="replace-space.svg"
   xmlns:inkscape="http://www.inkscape.org/namespaces/inkscape"
   xmlns:sodipodi="http://sodipodi.sourceforge.net/DTD/sodipodi-0.dtd"
   xmlns="http://www.w3.org/2000/svg"
   xmlns:svg="http://www.w3.org/2000/svg">
  <sodipodi:namedview
     id="namedview1"
     pagecolor="#ffffff"
     bordercolor="#000000"
     borderopacity="0.25"
     inkscape:showpageshadow="2"
     inkscape:pageopacity="0.0"
     inkscape:pagecheckerboard="0"
     inkscape:deskcolor="#d1d1d1"
     inkscape:document-units="px"
     inkscape:zoom="0.39895833"
     inkscape:cx="1866.1097"
     inkscape:cy="1154.2559"
     inkscape:window-width="1366"
     inkscape:window-height="740"
     inkscape:window-x="0"
     inkscape:window-y="0"
     inkscape:window-maximized="1"
     inkscape:current-layer="layer1" />
  <defs
     id="defs1" />
  <g
     inkscape:label="Layer 1"
     inkscape:groupmode="layer"
     id="layer1">
    <path
       style="fill:#000000;stroke:#181818;stroke-width:0.606"
       id="path4"
       d="m 590.14491,1011.4368 c 3.02306,18.1631 4.26279,36.598 5.50847,54.9551 1.90663,23.0364 -1.59203,45.7073 -6.70935,68.076 -1.17542,6.1224 -3.13431,12.0333 -5.08795,17.9361 0,0 12.91516,7.0939 12.91516,7.0939 v 0 c 1.8659,-6.0034 3.73317,-12.0159 4.84522,-18.2187 4.90302,-22.5598 8.56898,-45.3715 6.66097,-68.5587 -1.15267,-18.253 -2.31003,-36.5499 -4.71564,-54.6856 z" />
    <path
       style="fill:#000000;stroke:#181818;stroke-width:0.606"
       id="path5"
       d="m 607.20752,1032.0709 c 31.69055,-0.4093 63.38501,-0.4479 95.07776,-0.5255 36.35828,-0.05 72.68481,2.1006 109.04085,1.6551 6.43297,-0.066 12.91501,-1.3592 19.36099,-0.6933 1.16952,0.1209 4.46817,1.2917 3.45958,0.6875 -12.93249,-7.7479 -10.50444,-6.0181 -6.59572,1.435 7.40804,27.6071 8.83957,56.4567 11.37037,84.8251 2.50754,23.8562 3.00545,47.8414 4.3761,71.7677 -0.52897,5.1389 2.94946,16.6009 0.57102,21.2001 -1.7153,3.3169 -4.84037,4.2861 -7.91677,5.9945 -2.73455,0.8151 -5.42094,1.8139 -8.20366,2.4452 -7.75959,1.7606 -16.9706,2.7219 -24.7933,3.3911 -15.77412,1.3493 -31.60167,1.6966 -47.41956,2.0987 -25.69404,0.4865 -51.3943,0.3945 -77.09099,0.2309 -12.93769,0.075 -25.89611,-0.5523 -38.82001,0.1559 -9.40011,0.2281 -18.85383,2.1608 -28.26008,1.4894 -7.51381,-3.0104 5.70804,3.8408 8.91725,4.9748 0.8875,0.3136 -1.13042,-1.5201 -1.53626,-2.3694 -0.49064,-1.0268 -0.8345,-2.1222 -1.13459,-3.2199 -0.79957,-2.9248 -0.95798,-5.1288 -1.33517,-8.1506 -0.50776,-9.6421 -1.55346,-19.2407 -2.22952,-28.8721 -0.40788,-13.1284 -2.67543,-26.0868 -4.21359,-39.1072 -0.17873,-1.713 -0.35747,-3.426 -0.53621,-5.139 0,0 -13.17906,-6.5349 -13.17906,-6.5349 v 0 c 0.19816,1.7278 0.39633,3.4556 0.59449,5.1834 1.56099,12.9883 3.93622,25.9095 4.20864,39.0195 0.60843,9.6416 1.66354,19.2437 2.11476,28.8939 1.38996,13.1705 3.11653,21.0509 20.33349,24.1222 9.40074,0.1412 18.76685,-1.3987 28.15453,-1.735 12.84601,-0.5691 25.71232,-0.068 38.56743,-0.2455 25.55626,-0.045 51.11403,-0.094 76.6665,-0.5877 15.88826,-0.4181 31.78714,-0.7649 47.63448,-2.0783 7.88013,-0.6531 17.44743,-1.5906 25.27497,-3.3833 2.9046,-0.6652 5.70083,-1.7371 8.55125,-2.6056 3.72848,-2.1687 6.63533,-3.0137 8.69067,-6.9597 2.61674,-5.0239 -1.07212,-16.1623 -0.71016,-21.7425 -1.71686,-24.0105 -2.19819,-48.1146 -4.88249,-72.0604 -2.55446,-28.3906 -4.08415,-57.108 -10.4836,-84.956 -0.88535,-2.0936 -0.95307,-4.7752 -2.65605,-6.2808 -15.50312,-13.7061 -20.68796,-10.7918 -38.41222,-9.5651 -36.04591,0.7562 -72.08134,-0.9515 -108.12918,-1.022 -32.17495,-0.078 -64.35149,-0.1209 -96.52434,-0.5255 z" />
    <path
       style="fill:#000000;stroke:#181818;stroke-width:0.606"
       id="path6"
       d="m 686.10988,1116.5122 c -8.94099,15.1859 -11.91335,33.2787 -14.37359,50.5064 0.0113,8.5948 -3.33889,22.6693 2.02501,30.2524 4.97688,2.533 9.69445,5.6579 14.93065,7.5989 1.07456,0.3984 5.60108,-2.6591 6.82508,-3.5711 7.11379,-5.3001 12.65829,-11.6782 18.33179,-18.4367 11.3743,-14.8187 19.40033,-31.5336 24.46102,-49.4357 1.66138,-7.2399 2.14262,-14.8073 -2.7736,-20.7794 -5.52801,-4.1904 -23.34264,-19.0116 -19.05022,-6.3242 7.72614,14.2278 16.66963,27.7742 26.1298,40.8989 8.79962,12.102 20.05029,21.9287 31.42605,31.4927 0,0 13.54917,5.4705 13.54917,5.4705 v 0 c -11.48545,-9.5281 -22.99068,-19.1713 -31.88751,-31.297 -9.37469,-12.8938 -18.03686,-26.2889 -25.65662,-40.3036 -0.31225,-0.6325 -0.50195,-1.342 -0.93673,-1.8973 -0.13901,-0.1776 -0.67318,-0.3689 -0.6611,-0.1437 0.0127,0.2374 0.8706,0.3749 0.66693,0.2524 -3.70796,-2.2311 -7.41065,-4.4741 -11.18913,-6.5834 -0.67015,-0.3742 1.21965,0.9329 1.85055,1.37 0.65126,0.4512 1.32939,0.8623 1.99409,1.2934 5.80417,5.6567 5.01657,12.0192 3.72945,19.5863 -4.73172,17.8061 -12.53946,34.4174 -23.92761,49.0135 -5.68031,6.5975 -11.18375,12.8874 -18.4488,17.8078 -1.22126,0.8271 -2.50204,1.5909 -3.86534,2.154 -0.80523,0.3325 -3.20603,-0.088 -2.56497,0.5018 3.18412,2.9302 7.23469,4.7497 10.85203,7.1245 -0.51612,-0.4417 -1.15876,-0.7685 -1.54837,-1.325 -3.93909,-5.6259 -1.48421,-21.6352 -1.58739,-28.0393 2.3045,-16.9386 5.21041,-34.9305 14.4979,-49.5918 z" />
    <path
       style="fill:#000000;stroke:#181818;stroke-width:0.606"
       id="path7"
       d="m 833.32622,1022.3968 c 36.01489,1.2389 72.07129,1.0939 108.10475,1.3454 34.12302,0.2974 68.24573,-1.5355 102.17343,-5.1249 12.7407,-1.1917 25.2719,-3.8404 37.9158,-5.7248 4.9667,-0.8892 10.0095,-0.9003 15.0357,-0.9484 19.7275,0.061 39.4351,-0.9001 59.1521,-1.4465 29.5355,-0.7392 59.0798,-0.9735 88.6232,-1.089 13.9495,0 27.8987,-0.01 41.8481,-0.042 25.1207,-0.1007 50.2415,-0.1346 75.3623,-0.1651 34.7646,-0.03 69.5292,-0.044 104.2938,-0.078 36.4945,-0.05 72.9888,0 109.4832,0.083 23.8252,0.027 47.6505,0.129 71.4758,0.1067 26.246,0.2363 52.4309,-1.7934 78.6268,-3.0861 41.4229,-1.9908 82.8911,-1.8412 124.3316,-0.6513 37.8464,1.8698 75.6941,3.7275 113.5166,6.0359 19.7302,1.6969 39.5962,1.4258 59.3224,3.0425 0,0 -11.7825,-8.6923 -11.7825,-8.6923 v 0 c -19.5547,-1.2488 -39.196,-1.0621 -58.7425,-2.5904 -37.6954,-2.1341 -75.4121,-3.85608 -113.1229,-5.69482 -41.5999,-1.12117 -83.2261,-1.31656 -124.8152,0.42739 -26.283,1.1947 -52.5574,3.16123 -78.8851,2.81693 -23.7274,-0.022 -47.4548,0.079 -71.1822,0.1067 -36.4178,0.089 -72.8355,0.1333 -109.2534,0.083 -34.8386,-0.035 -69.6772,-0.048 -104.5158,-0.083 -25.2848,-0.035 -50.5696,-0.075 -75.8542,-0.1924 -13.9043,-0.038 -27.8086,-0.065 -41.7118,0.1549 -29.3885,0.3496 -58.7741,0.9168 -88.1595,1.4523 -20.0134,0.3964 -40.0259,1.0484 -60.0446,0.7731 -5.0705,0.036 -10.1462,0.1053 -15.1338,1.1489 -12.4526,2.0789 -24.8224,4.7216 -37.3948,6.0073 -33.59055,3.7685 -67.37906,5.9262 -101.19367,5.6345 -36.47602,-0.2461 -73.02367,-0.1157 -109.43418,-2.504 z" />
    <path
       style="fill:#000000;stroke:#181818;stroke-width:0.606"
       id="path8"
       d="m 855.35373,1232.5931 c 54.01585,-4.2613 108.20065,-5.4257 162.35307,-6.5999 82.8089,-1.4579 165.633,-1.724 248.4527,-1.8357 75.947,-0.6401 151.8914,-1.4975 227.8401,-1.9235 54.8624,0 109.7173,-0.2485 164.544,-2.3243 29.5329,-1.5298 59.0173,-3.8155 88.5311,-5.6427 21.0153,-0.8029 41.9933,-2.2778 62.9932,-3.3774 18.0496,-1.266 36.0679,-2.9067 54.1113,-4.2488 17.1103,-1.932 34.2642,-3.1727 51.4684,-3.7957 13.1709,-0.4569 26.3406,-0.024 39.4739,-1.1949 10.3464,-1.2569 20.7823,-1.1105 31.1573,-1.9156 9.0596,-0.8873 18.1264,-1.6457 27.2216,-2.0336 0.1247,-0.018 5.1224,-0.6838 5.5718,-0.9742 3.7254,-2.4074 -2.6307,-11.7755 -3.1327,-13.0109 -1.4897,-3.6666 -2.7306,-7.4294 -4.0959,-11.1442 -9.0279,-27.9238 -12.1447,-57.1695 -14.1698,-86.2989 -1.4115,-19.4571 -0.7698,-38.9752 -1.4783,-58.4502 -0.4817,-9.2673 -2.2821,-18.3851 -3.9461,-27.4919 0,0 -13.184,-6.41141 -13.184,-6.41141 v 0 c 1.7567,9.05971 3.6669,18.12971 4.1825,27.36851 0.787,19.5579 0.4181,39.162 1.8716,58.6996 2.102,29.1929 5.265,58.4685 13.8688,86.5748 1.2566,3.7095 2.3846,7.4651 3.7699,11.1285 0.9188,2.4295 2.0185,4.7887 3.136,7.1335 0.4139,0.8686 1.1975,1.5667 1.4526,2.4945 0.5007,1.8206 -5.4902,1.3423 -5.8838,1.7227 -9.0605,0.465 -18.088,1.3013 -27.119,2.1554 -10.4025,0.7251 -20.8577,0.6232 -31.2233,1.8949 -13.0266,1.14 -26.1024,0.8138 -39.1627,1.3248 -17.2121,0.6227 -34.3634,1.9215 -51.4804,3.8561 -18.0484,1.3741 -36.0799,2.9458 -54.1383,4.1923 -20.9094,1.1729 -41.7952,2.7361 -62.7227,3.5879 -29.3723,1.9164 -58.721,4.1788 -88.1058,5.9107 -54.4813,2.4521 -109.0001,3.046 -163.5344,2.9982 -75.8022,0.5639 -151.5995,1.5448 -227.4004,2.2356 -82.8323,0.1761 -165.669,0.2673 -248.4899,1.8362 -54.9589,1.068 -109.91867,2.2989 -164.82976,4.7703 z" />
    <path
       style="fill:#000000;stroke:#181818;stroke-width:0.606"
       id="path9"
       d="m 997.62476,1012.628 c 10.39294,27.5068 13.84884,57.1288 18.21324,86.0539 4.2428,29.6704 10.2256,59.0351 17.8429,88.015 3.2645,11.196 6.0058,22.543 9.1446,33.7688 0.7003,2.3274 1.4356,4.6422 2.1084,6.9775 0,0 13.5106,6.421 13.5106,6.421 v 0 c -0.6604,-2.3739 -1.453,-4.6982 -2.2072,-7.0443 -3.5093,-11.2166 -6.0389,-22.7681 -9.6438,-33.9673 -8.0378,-28.9628 -14.2881,-58.3668 -18.4806,-88.1436 -4.2591,-28.8958 -7.9187,-58.1786 -16.9178,-86.0664 z" />
    <path
       style="fill:#000000;stroke:#181818;stroke-width:0.606"
       id="path10"
       d="m 1721.9171,971.5857 c 2.7226,11.3186 2.7333,23.0889 3.5041,34.6414 0.6829,10.2359 1.5595,20.4578 2.3399,30.6867 2.09,23.0806 4.2667,46.1526 5.621,69.2904 0.088,1.774 0.2352,3.5461 0.2627,5.3221 0.016,1.0018 0.1052,2.0298 -0.1335,3.0029 -0.051,0.2055 -0.8162,0 -0.6273,0.098 3.6876,1.8634 7.0987,5.0437 11.2248,5.2574 1.8879,0.098 -2.2277,-3.0923 -2.9721,-4.8299 -1.0133,-2.3652 -1.5062,-4.9209 -2.2593,-7.3814 -1.9987,-13.4138 -1.5458,-28.0198 4.376,-40.5208 0.9683,-2.0439 2.3206,-3.8827 3.4809,-5.824 1.6591,-1.5111 3.0174,-3.4402 4.9774,-4.5331 11.3665,-6.3379 31.4091,-3.0993 43.0574,0.6502 3.8845,1.2504 7.5756,3.0371 11.3634,4.5556 -0.8616,-0.4417 -3.2554,-2.0234 -2.5848,-1.325 2.3162,2.4126 5.3815,4.0475 7.6007,6.5495 3.2073,3.6161 7.0095,9.948 6.1681,15.254 -1.2308,7.7608 -7.5265,12.064 -12.6,17.1244 -19.547,14.6339 -42.4978,23.0747 -65.8155,29.4972 -5.0498,1.3421 -10.241,2.5136 -15.36,1.0918 0,0 11.8982,9.0172 11.8982,9.0172 v 0 c 5.2625,0.7162 10.3875,-0.3676 15.4436,-1.9061 23.2674,-6.975 46.226,-15.6786 65.8858,-30.3072 5.5726,-5.4901 11.9859,-9.8174 13.5456,-18.1484 0.5188,-2.771 -0.2186,-5.7249 -1.1818,-8.3744 -5.1651,-14.2064 -22.9072,-20.5326 -34.1335,-27.2151 -3.8205,-1.4618 -7.5485,-3.1933 -11.4616,-4.3853 -12.5639,-3.8272 -32.1719,-6.8214 -44.2225,0.2597 -2.0508,1.2051 -3.4628,3.262 -5.1942,4.8929 -1.1919,2.0259 -2.5802,3.9484 -3.5758,6.0777 -5.9676,12.7631 -6.4912,27.6327 -4.7698,41.3426 0.3055,1.1696 2.5222,11.4847 4.459,12.958 16.6498,12.6655 17.2941,11.0326 16.1429,-1.6866 -1.7042,-23.2307 -4.0826,-46.3994 -6.2009,-69.5944 -0.4341,-5.9482 -1.8072,-24.3669 -2.1473,-30.5487 -0.635,-11.5417 -0.5421,-23.2052 -2.5623,-34.6259 z" />
    <path
       style="fill:#000000;stroke:#181818;stroke-width:0.606"
       id="path11"
       d="m 1337.3687,1006.7988 c 6.6871,24.2068 11.8268,48.8229 17.0953,73.3701 6.0444,26.3623 13.1331,52.5064 21.2878,78.2946 3.7038,12.9434 8.7627,25.4664 12.2948,38.4583 0.7764,4.2677 1.7527,8.3408 3.2993,12.3915 0,0 13.5368,6.2937 13.5368,6.2937 v 0 c -1.507,-4.0529 -2.7555,-8.0161 -3.4486,-12.3084 -3.6165,-13.1296 -9.0811,-25.6762 -12.8194,-38.7742 -8.3092,-25.7802 -15.5585,-51.9213 -21.6498,-78.3145 -5.2014,-24.3588 -10.334,-48.7402 -16.1369,-72.9635 z" />
    <path
       style="fill:#000000;stroke:#181818;stroke-width:0.606"
       id="path12"
       d="m 1612.5655,1001.6206 c 0.4148,23.6587 1.2967,47.3128 2.2887,70.9546 0.8359,28.5857 3.1431,57.0621 7.0789,85.3812 2.4507,18.0344 7.4462,35.5617 12.5017,53.0026 0.5432,1.8563 1.0863,3.7126 1.6295,5.5689 0,0 13.25,6.274 13.25,6.274 v 0 c -0.5684,-1.8673 -1.1367,-3.7345 -1.705,-5.6017 -5.275,-17.403 -10.3315,-34.9476 -12.9405,-52.9811 -4.1724,-28.3116 -6.6317,-56.8045 -7.4703,-85.4178 -0.9395,-23.4482 -1.7335,-46.9347 -1.3306,-70.4028 z" />
    <path
       style="fill:#000000;stroke:#181818;stroke-width:0.606"
       id="path13"
       d="m 2874.8022,995.31508 c -9.6526,4.1485 -11.6855,14.95842 -13.6065,24.21672 -2.3664,15.4027 -2.9133,31.025 -1.2069,46.5054 2.5723,15.1849 8.3373,29.5309 17.3888,41.965 7.631,8.418 17.3242,13.209 27.6519,18.0579 1.6967,0.7967 7.7478,1.538 9.4786,1.7908 9.1157,1.2454 18.0263,0.1876 26.6029,-2.9621 0,0 -12.3118,-8.3063 -12.3118,-8.3063 v 0 c -8.414,3.0143 -17.1965,3.7633 -26.0709,2.4217 -10.3135,-1.7879 -13.8651,-5.7111 -0.6143,3.4628 1.2117,0.8389 -2.6162,-1.3718 -3.8343,-2.2014 -2.8962,-1.9724 -4.891,-4.056 -7.4399,-6.4592 -9.3773,-12.2279 -15.1992,-26.148 -17.8947,-41.3511 -1.7924,-15.3192 -1.1993,-30.7772 1.1214,-46.0298 1.824,-8.7691 3.6451,-19.2309 13.1228,-22.7059 z" />
    <path
       style="fill:#000000;stroke:#181818;stroke-width:0.606"
       id="path14"
       d="m 2005.0851,1189.9406 c 36.2518,-0.4625 72.5081,-0.465 108.7622,-0.4176 26.6596,0.5339 53.2922,-0.1167 79.9246,-1.2195 11.1776,-0.5054 22.3634,-0.7554 33.5511,-0.8604 12.4689,-0.066 24.9375,-0.1128 37.4066,-0.1195 14.7013,0.025 29.4027,0.033 44.104,0.033 21.2249,0.024 42.4491,-0.1324 63.6737,-0.207 32.3871,0.4611 64.7667,1.2207 97.1162,2.857 17.9336,0.9864 35.8762,1.7801 53.8306,2.2556 8.0737,0.1898 16.1494,0.2215 24.2249,0.2235 7.3504,-0.017 14.7009,-0.027 22.0514,-0.035 7.7287,-0.011 15.4574,0 23.1861,0 8.6943,-0.035 17.3248,-1.552 25.9342,-2.6512 17.4186,-2.1862 34.9052,-3.4214 52.4381,-4.1891 21.3943,-0.6635 42.7873,-0.6884 64.1739,-1.5951 23.0861,-0.6207 46.1169,-2.248 69.1454,-3.9121 30.1547,-2.2025 60.3392,-3.7267 90.5597,-4.6217 24.5097,-0.3694 49.0208,-0.9408 73.4806,-2.6087 14.1763,-0.9762 28.343,-1.9217 42.4843,-3.3177 0,0 -11.8562,-8.4341 -11.8562,-8.4341 v 0 c -14.062,1.4353 -28.1559,2.3979 -42.2531,3.4245 -24.3436,1.6176 -48.7265,2.3984 -73.1187,2.8053 -30.2897,0.951 -60.551,2.4477 -90.7853,4.5306 -23.0659,1.6445 -46.1398,3.13 -69.2596,3.7786 -21.3883,0.901 -42.7854,0.9151 -64.1806,1.5933 -17.6457,0.7798 -35.2523,1.9908 -52.7967,4.0762 -8.6168,1.0554 -17.2597,2.4329 -25.9576,2.4089 -7.7253,0 -15.4505,0.013 -23.1758,0.01 -7.3634,-4e-4 -14.7267,0 -22.09,0.01 -8.0133,0.01 -16.0272,0.011 -24.0395,-0.131 -17.787,-0.3371 -35.563,-1.0459 -53.3307,-1.935 -32.3088,-1.484 -64.645,-2.065 -96.9808,-2.6748 -21.4158,-0.074 -42.8313,-0.2296 -64.2473,-0.21 -14.6822,0 -29.3643,0 -44.0465,0.01 -12.5448,-0.015 -25.09,-0.1227 -37.6344,-0.026 -11.1239,0.1317 -22.243,0.4751 -33.3526,1.0665 -26.3226,1.3026 -52.6502,2.2024 -79.0134,1.8002 -36.6375,0.048 -73.2768,0.038 -109.9119,-0.4177 z" />
    <path
       style="fill:#000000;stroke:#181818;stroke-width:0.606"
       id="path15"
       d="m 2001.7077,989.43915 c 33.1164,-0.81108 66.2055,-0.14143 99.3044,0.9603 53.5776,2.41381 107.1714,4.23451 160.7928,5.27394 45.7958,0.62577 91.5905,0.82751 137.3845,1.5865 52.4614,0.67894 104.8799,3.06311 157.3081,4.91461 36.4784,1.4414 72.9823,1.937 109.417,-0.5478 30.3211,-2.17154 60.4822,-6.17161 90.5306,-10.69229 47.0836,-6.91136 94.3055,-12.87547 141.6748,-17.43717 24.399,-2.74135 48.9612,-3.02985 73.4342,-4.56066 5.4749,-0.37896 10.9411,-0.86919 16.4139,-1.27586 1.5052,-0.11185 5.2403,-0.52296 6.9225,-0.10538 1.0768,0.26729 2.0296,0.8969 3.0444,1.34535 -2.9682,-1.41913 -5.9548,-5.71424 -8.9046,-4.25737 -2.3426,1.15691 3.1578,4.18483 4.423,6.47069 1.7823,3.22016 3.2828,6.59504 4.6909,9.99554 5.6124,13.5534 9.0738,27.74675 12.6837,41.91905 6.5223,27.1757 12.2132,54.518 15.6333,82.2627 1.6418,14.9668 2.3316,30.0162 2.465,45.0658 0,0 13.1832,6.6903 13.1832,6.6903 v 0 c -0.3554,-15.1897 -1.3096,-30.3689 -2.937,-45.4765 -3.5037,-27.8421 -9.3178,-55.2575 -15.8202,-82.5459 -3.5402,-14.1746 -6.9309,-28.3437 -12.2453,-41.98944 -0.5483,-1.40798 -6.0381,-14.91077 -8.4041,-16.8963 -4.9712,-4.17183 -10.9805,-6.92082 -16.4708,-10.38124 -1.1177,-0.32696 -2.202,-0.80459 -3.3531,-0.9809 -1.5233,-0.23331 -5.6143,0.19525 -6.9244,0.30629 -5.403,0.45795 -10.7996,0.98992 -16.2075,1.38941 -24.1964,1.57994 -48.4484,2.45241 -72.5577,5.24676 -47.401,4.8338 -94.6657,10.88636 -141.8669,17.3763 -30.1573,4.22377 -60.3851,8.13547 -90.7624,10.40013 -36.1999,2.52329 -72.4827,2.19591 -108.7349,0.87065 -52.4594,-1.605 -104.8921,-4.09974 -157.372,-4.93754 -45.7476,-0.93434 -91.499,-0.87663 -137.2515,-1.48986 -53.6477,-0.96999 -107.2746,-2.67636 -160.8664,-5.35338 -33.5522,-1.19525 -67.0934,-1.87634 -100.6678,-1.89448 z" />
    <path
       style="fill:#000000;stroke:#181818;stroke-width:0.606"
       id="path16"
       d="m 2212.1468,991.75968 c 2.9039,16.73452 5.6087,33.50472 8.1703,50.29522 2.6463,16.1282 2.9609,32.4732 4.1039,48.735 0.3584,10.757 2.8149,21.0866 6.3712,31.1833 2.6288,8.0931 5.3147,16.153 8.3513,24.1048 1.5771,3.9137 2.8517,7.9338 3.9121,12.0142 0,0 13.4544,6.4387 13.4544,6.4387 v 0 c -1.034,-4.1589 -2.3451,-8.2445 -3.939,-12.2255 -3.1196,-7.9259 -5.7969,-15.9948 -8.4172,-24.0969 -3.682,-9.9726 -6.2303,-20.2195 -6.6895,-30.8956 -1.3069,-16.3177 -1.5713,-32.7373 -4.2499,-48.9299 -2.5355,-16.7251 -5.4484,-33.3959 -7.6084,-50.17578 z" />
    <path
       style="fill:#000000;stroke:#181818;stroke-width:0.606"
       id="path17"
       d="m 2455.4944,993.80701 c 7.305,14.28799 8.0993,30.91109 10.081,46.56579 3.4711,24.0927 8.257,47.967 12.3481,71.9577 2.1786,15.6941 5.0973,31.2652 8.386,46.7597 0.9273,4.1001 1.7369,8.2227 2.4734,12.3605 0,0 13.3436,6.5012 13.3436,6.5012 v 0 c -0.768,-4.1904 -1.6223,-8.3619 -2.6421,-12.4998 -3.4439,-15.5159 -6.4437,-31.1255 -8.7305,-46.8583 -4.1946,-23.9669 -9.0916,-47.8199 -12.4384,-71.9269 -1.9091,-15.6259 -2.5,-32.2131 -9.1911,-46.69326 z" />
    <path
       style="fill:#000000;stroke:#181818;stroke-width:0.606"
       id="path18"
       d="m 2687.173,978.81156 c 1.2045,1.0702 2.5708,1.98219 3.6135,3.21061 5.2471,6.18179 9.0915,13.07463 12.8506,20.24943 9.3097,17.7692 16.2655,36.3262 23.2336,55.0947 10.3549,30.1995 19.1355,60.957 25.6772,92.2092 0,0 12.9152,6.2369 12.9152,6.2369 v 0 c -7.0379,-31.3865 -16.0654,-62.3099 -26.3971,-92.766 -6.8593,-18.6977 -13.7108,-37.2184 -22.641,-55.0547 -3.1641,-6.3197 -7.5185,-14.54032 -11.9996,-20.37389 -0.963,-1.25364 -2.2533,-2.21779 -3.3799,-3.32669 z" />
    <path
       style="fill:#000000;stroke:#181818;stroke-width:0.606"
       id="path19"
       d="m 3008.4608,961.88811 c 29.0846,-1.08345 58.1115,0.91495 87.1135,2.84534 38.7858,2.71274 77.621,4.69094 116.4645,6.36083 6.5443,0.54727 13.4496,-0.10513 19.8313,1.87677 1.0396,0.32284 3.9379,1.85077 2.9842,1.32609 -11.9633,-6.58161 -12.9534,-8.69642 -9.0053,-3.22116 0.4299,1.11129 0.9346,2.19646 1.2896,3.33389 0.4818,1.54341 0.811,3.13033 1.2165,4.6955 0.7528,2.42677 1.4688,4.86528 2.2584,7.28031 3.3223,10.16065 7.1583,20.14892 10.7696,30.20852 10.1862,25.8171 17.1925,52.6774 23.8297,79.574 5.0539,20.6359 8.9325,41.5196 14.2891,62.0822 0.7456,5.0793 5.5764,14.6558 2.23,19.6371 -0.5623,0.8371 -1.4141,1.4381 -2.1211,2.1572 -8.3487,5.8607 -18.8253,6.8869 -28.693,7.9501 -14.0951,1.5186 -17.7311,1.3633 -32.4191,1.8837 -32.2165,0.8682 -64.4256,-0.5087 -96.5824,-2.3504 -27.6258,-2.5411 -55.0427,-6.8596 -82.5464,-10.4156 -11.9607,-1.862 -23.9041,-3.825 -35.9476,-5.0719 0,0 11.8048,8.7647 11.8048,8.7647 v 0 c 11.8962,1.2389 23.7064,3.1001 35.5417,4.8113 27.4686,3.4331 54.8418,7.7102 82.4206,10.2007 32.1141,1.8355 64.2845,2.8637 96.4532,2.1006 14.5706,-0.4647 18.8094,-0.3291 32.8432,-1.751 10.2999,-1.0436 21.2271,-2.0496 29.8124,-8.389 0.8136,-0.8761 1.784,-1.6293 2.4408,-2.6283 3.9625,-6.0262 -1.1204,-14.5929 -2.1236,-20.6444 -5.6718,-20.5875 -9.6422,-41.5531 -14.7639,-62.279 -6.6778,-26.8697 -13.5396,-53.771 -23.5965,-79.6191 -5.3224,-15.0505 -11.117,-29.97385 -14.7856,-45.5336 -7.8652,-14.10942 -25.195,-14.1473 -38.8598,-14.34814 -38.6241,-1.2086 -77.2315,-3.02819 -115.7703,-5.90448 -29.4577,-2.08898 -58.9255,-4.0221 -88.4759,-3.72204 z" />
    <path
       style="fill:#000000;stroke:#181818;stroke-width:0.606"
       id="path20"
       d="m 3052.5559,1006.2623 c 13.1398,15.8891 24.3435,33.2565 35.5676,50.5169 8.8395,14.2928 17.618,28.6435 25.2883,43.6035 0,0 13.2027,5.9568 13.2027,5.9568 v 0 c -7.7346,-15.0671 -16.6763,-29.4651 -25.5513,-43.8808 -11.1261,-17.1217 -22.3114,-34.2257 -34.6939,-50.4747 z" />
    <path
       style="fill:#000000;stroke:#181818;stroke-width:0.606"
       id="path21"
       d="m 3141.037,1018.6786 c -3.5396,13.3383 -5.8185,26.949 -6.9742,40.6895 -0.7648,11.411 1.3883,22.5389 6.7319,32.635 6.314,9.5999 18.2446,14.1516 29.1432,16.2289 8.0726,1.7632 16.167,3.6491 24.4322,2.4989 10.3295,-2.899 12.1958,-8.2907 12.9192,-18.3522 -1.2518,-12.7207 -4.9347,-25.0542 -8.1043,-37.3981 -1.6262,-7.3496 -3.0716,-14.8873 -7.8679,-20.8932 -6.1192,-6.2652 -14.1127,-11.7758 -22.8984,-13.0897 -3.0269,-1.2978 -6.1739,-2.0082 -9.4191,-2.4508 0,0 12.0003,8.9964 12.0003,8.9964 v 0 c 3.2103,0.5321 6.2443,1.5941 9.3648,2.4862 5.7123,1.3619 10.3103,5.3921 -7.892,-5.5844 -0.5824,-0.3512 1.2428,0.5627 1.8185,0.9245 1.5545,0.9771 1.9925,1.5978 3.2774,2.9261 5.3781,5.4491 6.7059,13.1741 8.4081,20.3721 3.1986,12.2015 6.7481,24.4006 8.2604,36.9515 -0.569,9.4576 -2.1192,14.1986 -11.9733,16.5326 -8.1751,0.7969 -16.1626,-1.1509 -24.1236,-2.8656 -3.1066,-0.697 -4.3542,-0.851 -7.2786,-1.9751 -0.9896,-0.3804 -3.782,-1.8982 -2.8953,-1.317 19.1216,12.5347 9.5511,6.4686 6.3881,2.0606 -5.832,-9.6643 -8.0044,-20.7847 -7.443,-32.0088 1.0583,-13.6081 3.3158,-27.1218 7.2492,-40.2138 z" />
    <path
       style="fill:#000000;stroke:#181818;stroke-width:0.606"
       id="path22"
       d="m 2522.6938,1044.3149 c 1.3655,11.892 0.3163,23.8942 0.5806,35.8352 0.082,11.9483 2.5238,20.5119 10.6935,29.3072 11.1262,7.526 23.733,16.4861 37.9305,15.3305 2.3542,-0.1916 4.6539,-0.8109 6.9809,-1.2163 11.8838,-2.9133 23.9905,-7.4637 30.7294,-18.3837 1.2802,-2.0745 2.1253,-4.3877 3.188,-6.5816 4.1103,-11.2823 4.7974,-24.0972 -1.8312,-34.6456 -1.1895,-1.8929 -2.7673,-3.5119 -4.1509,-5.2679 -15.1841,-13.6145 -34.6464,-19.4365 -54.1054,-23.35 -7.5419,-1.7025 -15.024,-1.5026 -22.4195,0.5215 -0.8233,0.2178 -1.6465,0.4356 -2.4698,0.6534 0,0 12.2924,8.4519 12.2924,8.4519 v 0 c 0.8206,-0.2192 1.6412,-0.4383 2.4619,-0.6575 7.1906,-1.8423 14.5018,-1.75 21.7728,-0.1526 7.2977,1.4949 14.5283,3.1072 21.5742,5.5808 2.6244,0.9213 5.1335,3.9561 7.7649,3.0551 2.1266,-0.7282 -3.6344,-4.9595 -5.565,-3.8083 -1.8906,1.1273 3.5083,2.6591 5.2625,3.9886 1.425,1.6606 3.0354,3.1784 4.2749,4.9817 6.8763,10.0043 6.4716,22.4839 2.48,33.4627 -1.0179,2.1023 -1.8243,4.3208 -3.0537,6.3068 -6.5691,10.6115 -18.5642,14.8154 -30.1208,17.4644 -6.4086,0.8668 -11.8052,1.2733 -18.0977,-0.5898 -1.6896,-0.5003 -6.1633,-3.1538 -4.938,-1.8873 2.1631,2.2357 5.3078,3.2481 7.9076,4.9565 1.3845,0.9099 -2.8403,-1.7065 -4.2604,-2.5597 -8.6754,-8.4051 -10.9925,-16.3859 -11.2617,-28.3592 -0.3537,-11.9426 0.662,-23.9032 -0.2356,-35.8255 z" />
    <path
       style="fill:#000000;stroke:#181818;stroke-width:0.606"
       id="path23"
       d="m 2291.5939,1052.1231 c 1.3226,0.213 2.6709,0.3033 3.9678,0.6391 6.6096,1.7109 11.5789,4.8059 11.4334,4.8243 -2.2607,0.286 -5.5809,-5.2457 -6.1264,-3.0333 -0.5925,2.4029 3.9075,3.0511 5.7016,4.7558 1.6747,1.5913 3.121,3.4068 4.6814,5.1102 7.5988,10.6709 9.4969,19.9387 0.4057,30.8081 -1.6922,2.0231 -3.8621,3.5931 -5.7932,5.3897 -6.1476,4.4751 -13.0802,7.3759 -20.2527,9.7273 -1.6947,0.5556 -3.4144,1.0325 -5.1287,1.5247 -1.1845,0.3401 -2.4656,0.4193 -3.5672,0.9719 -0.4025,0.2019 -0.4587,0.7751 -0.688,1.1626 5.1924,2.6879 10.0822,6.0659 15.5772,8.0637 1.7697,0.6435 3.7583,-0.2441 5.6384,-0.3503 2.7012,-0.1526 5.4011,-0.346 8.1054,-0.4263 8.9633,-0.266 17.949,-0.014 26.9113,0.1511 2.4191,0.1714 4.8382,0.3429 7.2573,0.5143 0,0 -11.7162,-8.6254 -11.7162,-8.6254 v 0 c -2.4038,-0.1321 -4.8075,-0.2643 -7.2113,-0.3964 -11.7684,-0.1605 -23.4898,-0.1785 -35.2529,0.2126 -1.9204,0.064 -6.5896,-1.5794 -5.7624,0.155 1.7963,3.7667 6.4291,5.3223 9.6436,7.9835 -1.4401,-0.3794 -0.2877,-0.026 3.2115,-1.1392 9.0177,-2.8681 17.9089,-6.1755 25.5593,-11.9231 2.0014,-1.8955 4.2441,-3.5651 6.0042,-5.6865 4.7086,-5.675 7.7366,-13.2806 6.346,-20.7403 -0.8033,-4.3092 -3.6419,-8.1298 -5.8581,-11.7273 -9.4579,-10.8097 -14.9692,-13.538 -29.0833,-21.577 -4.9615,-2.826 -10.4072,-4.694 -16.1011,-5.1581 z" />
    <path
       style="fill:#000000;stroke:#181818;stroke-width:0.606"
       id="path24"
       d="m 2051.9714,1019.1366 c 2.7479,6.1987 3.9835,12.935 7.1774,18.9379 4.975,6.6237 15.6065,13.1972 22.5753,14.7022 0.9808,0.048 2.4834,0.3083 3.3866,-0.3774 4.0508,-3.0757 4.5448,-12.2743 5.1541,-16.7136 1.4559,-11.7942 0.8569,-23.7288 -2.1474,-35.2212 -3.1206,-7.35513 -10.5253,-8.60857 -18.8188,-10.95031 -1.9964,-0.56373 -9.6745,4.67156 -11.2533,5.76335 -4.5619,3.19193 -8.0084,7.32456 -10.8949,12.01496 0,0 12.8402,7.4548 12.8402,7.4548 v 0 c 2.7435,-4.538 6.0611,-8.4936 10.4962,-11.5126 3.164,-2.0762 3.8339,-2.784 7.3623,-4.07555 1.1479,-0.42016 4.2894,-0.007 3.5365,-0.96982 -2.5266,-3.23097 -6.7505,-4.67232 -9.9527,-7.23527 -0.5553,-0.44446 1.4466,0.34918 1.9618,0.83959 0.6448,0.61381 0.8963,1.53843 1.3445,2.30765 3.3597,11.2714 4.0957,23.0863 2.5761,34.7561 -0.4289,2.9591 -1.1814,13.2307 -4.5024,14.9553 -0.7054,0.3663 -2.3277,-0.077 -2.9485,-0.1921 -5.3724,-2.1243 -2.9202,-1.2455 9.4505,5.832 0.5787,0.3311 -1.1097,-0.7394 -1.6664,-1.1063 -1.8187,-1.1986 -3.6394,-2.3335 -4.8623,-4.2071 -3.6562,-5.7254 -4.6713,-12.5471 -7.2407,-18.7649 z" />
    <path
       style="fill:#000000;stroke:#181818;stroke-width:0.606"
       id="path25"
       d="m 2100.3129,1013.8541 c -7.507,13.5528 -14.7824,27.2321 -21.3689,41.2575 -5.394,11.3607 -9.5722,23.271 -12.8636,35.3986 -2.4178,6.9946 -3.6801,14.2367 -4.387,21.5775 -0.3369,2.7557 -0.9604,5.462 -1.5206,8.1774 0,0 13.1589,7.0392 13.1589,7.0392 v 0 c 0.5512,-2.7765 1.1512,-5.5456 1.5358,-8.3521 0.6297,-7.2793 1.8401,-14.4576 4.1896,-21.4028 3.0996,-12.1066 7.1528,-23.9982 12.4579,-35.3236 6.5327,-14.0283 13.7523,-27.7443 21.7526,-40.9955 z" />
    <path
       style="fill:#000000;stroke:#181818;stroke-width:0.606"
       id="path26"
       d="m 2091.0613,1077.0486 c -0.7132,8.554 -1.8636,17.1206 -0.5697,25.6641 3.4066,15.0933 18.2312,13.3659 29.1702,12.1981 10.4456,-0.6561 20.3761,-3.3294 29.469,-8.473 6.6877,-4.5574 12.0451,-10.6062 14.1436,-18.5081 1.7416,-10.6961 -10.2927,-14.5781 -19.5196,-16.8415 -7.1591,-1.172 -14.4723,-2.6669 -21.7532,-2.1646 -4.7137,0.365 -9.181,1.3846 -13.4697,3.358 -4.3822,2.9945 -8.9787,5.5919 -13.6056,8.1919 -2.5156,1.133 -4.9142,2.5522 -7.087,4.2475 0,0 12.6575,7.9978 12.6575,7.9978 v 0 c 2.1716,-1.5896 4.5142,-2.9382 6.9395,-4.107 4.5652,-2.6103 9.0768,-5.2786 13.5357,-8.0527 4.2043,-1.7369 8.5695,-2.6686 13.1209,-2.9374 7.2063,-0.1747 14.4232,1.0314 21.4507,2.5282 7.0752,2.1883 3.9206,1.4892 -7.7621,-5.714 -0.4565,-0.2815 1.0147,0.441 1.3714,0.8415 1.2643,1.4198 1.1425,3.8833 1.0042,5.5709 -1.651,7.6011 -7.0392,13.3075 -13.3766,17.5383 -9.0349,4.9024 -18.8235,7.4077 -29.1046,7.9935 -2.614,0.2334 -6.8248,0.7259 -9.5462,0.5557 -1.0243,-0.064 -3.817,-1.2154 -3.0275,-0.5597 16.9905,14.1097 10.2659,8.2554 8.7539,2.8552 -1.6886,-8.3613 -0.4973,-16.8722 0.4098,-25.2695 z" />
    <path
       style="fill:#000000;stroke:#181818;stroke-width:0.606"
       id="path27"
       d="m 1462.2053,1077.7319 c 0.2893,13.5958 0.8899,27.4209 4.1188,40.697 0.7767,3.1935 1.8695,6.3019 2.8042,9.4529 5.4344,13.4966 11.3801,27.6784 22.5092,37.5128 5.0824,2.6495 9.7961,6.1774 15.2471,7.9487 1.1105,0.3608 1.995,-1.2519 2.8206,-2.0777 5.2303,-5.2318 8.6076,-12.7636 12.0442,-19.1934 4.1301,-8.3593 8.2079,-16.7527 11.2475,-25.5784 1.8396,-6.1332 2.9474,-12.5357 1.7004,-18.8638 -3.2888,-8.0356 -10.3558,-13.4089 -16.9591,-18.6363 -3.9279,-2.7267 -7.8934,-5.391 -11.9179,-7.972 0,0 -13.7775,-5.3521 -13.7775,-5.3521 v 0 c 4.07,2.5351 8.009,5.2499 12.0358,7.8532 6.4786,5.0922 13.3492,10.127 17.2012,17.6395 1.5384,6.0603 0.4236,12.2262 -1.2661,18.1739 -2.915,8.7889 -6.9417,17.1317 -10.9634,25.4588 -2.8034,5.2338 -5.5445,10.5039 -9.1422,15.2554 -0.8387,1.1076 -1.6714,2.247 -2.7211,3.1573 -0.6025,0.5225 -2.7239,0.5142 -2.1441,1.0617 2.9794,2.8131 6.8856,4.4439 10.3284,6.6659 -11.7306,-9.1534 -17.7099,-23.5477 -23.2731,-36.9167 -0.9519,-3.1042 -2.0692,-6.1624 -2.8556,-9.3126 -3.2673,-13.0873 -3.914,-26.8042 -3.7978,-40.2282 z" />
    <path
       style="fill:#000000;stroke:#181818;stroke-width:0.606"
       id="path28"
       d="m 1170.6766,1049.7082 c 7.3412,-8.625 12.2554,-8.7819 22.4952,-4.7028 -2.4885,-1.1933 -5.1917,-5.144 -7.4655,-3.5799 -1.9885,1.3678 3.4434,3.4174 4.8362,5.3885 1.5933,2.2549 3.1353,4.6162 4.0689,7.2145 4.0583,11.2945 1.7948,22.7883 -0.1528,34.1664 -4.4409,17.7915 -12.5823,34.9747 -25.5894,48.1648 -1.8542,1.8803 -3.9616,3.4927 -5.9424,5.2391 -5.3986,3.7625 -11.5183,8.2814 -18.4832,8.2753 -2.6615,0 -3.9571,-0.8709 -6.2926,-1.9122 3.3909,1.7702 6.4727,4.3399 10.1726,5.3106 1.1708,0.3072 -1.4457,-1.9844 -1.8472,-3.1263 -0.422,-1.1999 -0.648,-2.5016 -0.5786,-3.7716 0.2284,-4.1817 3.0473,-6.4695 6.1227,-8.7016 8.3169,-2.8881 17.4495,-0.4245 25.9948,0.3892 10.1856,-0.09 20.6966,4.1568 30.7126,1.1862 0,0 -12.2823,-8.4345 -12.2823,-8.4345 v 0 c -9.9102,2.4275 -20.2004,-1.5323 -30.2051,-1.4852 -8.8328,-0.9055 -18.3603,-3.5 -26.7523,0.4327 -4.6111,3.6824 -8.021,7.954 -6.5113,14.2737 0.3115,1.3038 0.4936,2.8878 1.5525,3.7098 4.7295,3.6708 10.2102,6.2549 15.3152,9.3824 10.3305,3.3258 17.2305,-1.8932 25.3962,-7.8913 1.9853,-1.8157 4.0966,-3.5024 5.9557,-5.447 12.9682,-13.5636 21.1956,-30.9261 25.7342,-48.9634 2.0754,-11.5053 4.5499,-23.3276 0.8769,-34.8779 -4.0287,-12.6685 -15.1349,-17.9615 -26.2031,-23.9768 -1.804,-0.5917 -3.549,-1.4096 -5.412,-1.7751 -7.6451,-1.4999 -13.743,2.2612 -18.4131,7.9551 z" />
    <path
       style="fill:#000000;stroke:#181818;stroke-width:0.606"
       id="path29"
       d="m 886.91617,1053.8863 c 5.43911,5.7641 11.30512,11.0144 17.58812,15.836 7.06107,4.6098 5.08476,3.4082 18.15761,10.4177 0.73852,0.396 1.55909,0.6158 2.34847,0.897 2.3462,0.836 2.911,0.8082 3.94189,-1.4417 -0.16969,-0.6565 -0.19004,-1.3712 -0.50906,-1.9696 -2.27523,-4.2674 -8.60767,-9.1497 -12.21801,-12.4707 -1.5148,-1.4065 -3.16586,-2.6427 -4.85286,-3.8297 0,0 -13.97448,-5.4622 -13.97448,-5.4622 v 0 c 1.77854,1.1063 3.50631,2.2861 5.09239,3.6627 4.49598,4.2086 9.10708,8.286 13.27557,12.8256 -0.30022,0.046 -1.40794,-0.116 -2.48428,-0.5414 -0.75868,-0.2999 -2.93775,-1.3989 -2.25349,-0.9547 0.22845,0.1483 16.44128,9.8368 7.25748,4.3482 -6.34077,-4.6539 -12.23586,-9.7883 -17.55593,-15.5955 z" />
    <path
       style="fill:#000000;stroke:#181818;stroke-width:0.606"
       id="path30"
       d="m 936.06195,1074.3932 c 0.69567,16.5493 -4.44914,32.7895 -8.25098,48.7445 -3.18403,12.9399 -6.50462,25.8417 -9.75864,38.763 0,0 13.00416,7.0224 13.00416,7.0224 v 0 c 3.06355,-13.0075 6.23376,-25.9892 9.38312,-38.9765 3.78647,-16.0947 8.89911,-32.2942 9.00671,-48.9421 z" />
    <path
       style="fill:#000000;stroke:#181818;stroke-width:0.606"
       id="path31"
       d="m 948.6096,1147.3783 c 0.99941,11.1124 2.71217,22.1024 5.92569,32.7923 2.60069,6.8333 13.1951,25.1738 22.57632,19.366 2.83313,-6.8898 5.4659,-13.9104 8.47144,-20.758 3.87364,-7.8599 6.47947,-16.0943 7.85992,-24.7239 0.53231,-5.0161 -0.64517,-9.5682 -4.87569,-12.5012 -16.05486,-8.7493 -12.00109,-10.1822 -21.12554,-2.2667 0,0 12.68929,7.8946 12.68929,7.8946 v 0 c 1.3404,-1.1776 2.67759,-2.813 4.24274,-3.7072 4.25857,-2.4332 17.86823,9.5423 -9.80644,-7.2983 4.4902,2.1386 6.1852,5.9686 5.75876,10.9424 -1.2467,8.5307 -3.73716,16.6825 -7.55724,24.4405 -2.90345,6.4424 -5.62565,12.9814 -8.13349,19.5816 -5.01726,-0.6788 -1.82214,-0.3291 10.9288,6.8846 0.64073,0.3625 -1.19968,-0.8682 -1.70531,-1.4033 -2.73472,-2.8938 -4.5956,-6.5132 -6.04114,-10.178 -3.35043,-10.5244 -5.19376,-21.4171 -5.85377,-32.4461 z" />
    <path
       style="fill:#000000;stroke:#181818;stroke-width:0.606"
       id="path32"
       d="m 909.98936,1050.8393 c -3.36248,5.8411 -5.99217,12.0336 -7.86883,18.4996 -1.32897,4.7791 -1.61077,9.082 1.53182,13.0871 4.83887,4.0064 16.45076,13.5469 24.27386,10.4415 3.79872,-1.637 6.64503,-4.6681 8.81415,-8.1098 1.92378,-5.3625 -1.79212,-10.1052 -4.97468,-14.1156 -1.88744,-2.2779 -3.96786,-4.3481 -6.16513,-6.3193 0,0 -13.82206,-5.593 -13.82206,-5.593 v 0 c 2.29559,1.8392 4.38434,3.8445 6.30126,6.087 2.86677,3.3614 6.87892,7.6538 5.73053,12.4092 -2.00039,3.1779 -4.65817,5.9215 -8.27818,7.1924 -1.70386,0.3443 -3.1983,0.2966 -4.8722,-0.3012 -0.6776,-0.2419 -2.56881,-1.2887 -1.95802,-0.9084 17.1465,10.6756 12.94443,7.8791 8.72497,5.0146 -4.07768,-3.9875 -3.32116,-6.3942 -2.22101,-11.7581 1.74932,-6.4099 4.26666,-12.5654 7.78393,-18.2237 z" />
  </g>
</svg>
